<svg width="395" height="417" viewBox="0 0 395 417" fill="none" xmlns="http://www.w3.org/2000/svg">
<path d="M226.299 406.996C225.956 406.996 225.612 406.905 225.304 406.727L58.5779 308.649C58.105 308.373 57.7723 307.91 57.6567 307.374C57.5411 306.838 57.6532 306.282 57.9685 305.833L192.253 115.005C192.877 114.118 194.099 113.905 194.985 114.528C195.871 115.152 196.085 116.374 195.462 117.26L62.4053 306.349L224.514 401.71L229.778 304.287C229.838 303.205 230.748 302.385 231.841 302.434C232.923 302.494 233.75 303.418 233.694 304.497L228.254 405.139C228.216 405.822 227.827 406.439 227.221 406.761C226.934 406.918 226.615 406.995 226.297 406.995L226.299 406.996ZM233.329 276.98C233.294 276.98 233.258 276.98 233.22 276.976C232.138 276.917 231.311 275.992 231.367 274.913L243.584 48.8905L212.394 93.2127C211.77 94.0989 210.548 94.3125 209.662 93.689C208.775 93.0656 208.562 91.8432 209.185 90.957L244.309 41.0485C244.814 40.334 245.728 40.0363 246.555 40.3235C247.381 40.6107 247.917 41.4093 247.872 42.2815L235.283 275.128C235.227 276.172 234.362 276.981 233.329 276.981L233.329 276.98Z" fill="white"/>
<path d="M383.215 308.919H273.257C272.175 308.919 271.296 308.04 271.296 306.958C271.296 305.875 272.175 304.996 273.257 304.996H380.122L303.751 142.709L85.2333 225.595C84.2176 225.98 83.0863 225.469 82.7045 224.456C82.3192 223.444 82.8306 222.309 83.8428 221.927L304.064 138.398C305.02 138.037 306.096 138.468 306.533 139.396L384.992 306.122C385.279 306.728 385.233 307.443 384.873 308.01C384.515 308.577 383.892 308.921 383.219 308.921L383.215 308.919ZM243.838 308.919H59.5725C58.9176 308.919 58.3046 308.59 57.9403 308.047L18.7112 249.203C18.3784 248.706 18.2944 248.086 18.4765 247.515C18.6586 246.948 19.0894 246.492 19.6499 246.279L56.3361 232.362C57.3518 231.977 58.4832 232.488 58.865 233.501C59.2502 234.513 58.7389 235.648 57.7266 236.03L23.3413 249.07L60.6229 304.996H243.839C244.921 304.996 245.8 305.875 245.8 306.957C245.797 308.039 244.918 308.919 243.835 308.919L243.838 308.919Z" fill="white"/>
<path d="M20.3432 250.08C19.8809 250.08 19.4221 249.915 19.0578 249.6C18.5114 249.131 18.2697 248.395 18.4273 247.691L57.6565 71.1554C57.7721 70.63 58.1013 70.1746 58.5636 69.898C59.026 69.6214 59.5829 69.5477 60.0977 69.6913L149.029 94.5918C150.073 94.8825 150.682 95.9648 150.388 97.0086C150.097 98.0524 149.012 98.6618 147.971 98.3675L61.0332 74.0248L23.0406 244.983L125.655 206.063C126.667 205.677 127.802 206.189 128.184 207.201C128.569 208.213 128.058 209.348 127.046 209.73L21.0417 249.947C20.814 250.031 20.5794 250.073 20.3447 250.073L20.3432 250.08ZM153.866 199.436C153.074 199.436 152.328 198.953 152.03 198.172C151.645 197.159 152.157 196.025 153.169 195.643L298.483 140.522L176.312 106.312C175.268 106.022 174.658 104.939 174.953 103.896C175.243 102.852 176.326 102.242 177.37 102.537L305.288 138.354C306.104 138.582 306.682 139.307 306.721 140.154C306.759 141.002 306.248 141.776 305.456 142.077L154.565 199.313C154.33 199.394 154.092 199.436 153.865 199.436L153.866 199.436Z" fill="white"/>
<path d="M373.406 416.806C361.507 416.806 351.831 407.128 351.831 395.23C351.831 383.332 361.508 373.655 373.406 373.655C385.304 373.655 394.982 383.332 394.982 395.23C394.982 407.128 385.304 416.806 373.406 416.806ZM373.406 377.577C363.673 377.577 355.753 385.496 355.753 395.23C355.753 404.965 363.672 412.884 373.406 412.884C383.14 412.884 391.06 404.965 391.06 395.23C391.06 385.496 383.14 377.577 373.406 377.577Z" fill="white"/>
<path d="M138.031 44.1246C126.132 44.1246 116.456 34.4469 116.456 22.549C116.456 10.6511 126.133 0.973389 138.031 0.973389C149.929 0.973389 159.607 10.6511 159.607 22.549C159.607 34.4469 149.929 44.1246 138.031 44.1246ZM138.031 4.89541C128.298 4.89541 120.378 12.8148 120.378 22.549C120.378 32.2832 128.297 40.2026 138.031 40.2026C147.765 40.2026 155.685 32.2832 155.685 22.549C155.685 12.8148 147.765 4.89541 138.031 4.89541Z" fill="white"/>
<path d="M324.367 279.5C323.849 279.5 323.348 279.282 322.973 278.922C322.609 278.557 322.406 278.05 322.406 277.538C322.406 277.016 322.612 276.508 322.973 276.144C323.709 275.419 325.022 275.419 325.747 276.144C326.119 276.515 326.325 277.016 326.325 277.538C326.325 278.05 326.119 278.557 325.747 278.922C325.387 279.282 324.886 279.5 324.367 279.5Z" fill="white"/>
<path d="M294.948 279.5C294.429 279.5 293.929 279.282 293.564 278.922C293.193 278.557 292.986 278.05 292.986 277.538C292.986 277.016 293.193 276.508 293.564 276.144C294.279 275.419 295.603 275.419 296.331 276.144C296.703 276.515 296.909 277.016 296.909 277.538C296.909 278.05 296.703 278.557 296.342 278.922C295.967 279.282 295.466 279.5 294.948 279.5H294.948Z" fill="white"/>
<path d="M265.528 279.5C265.009 279.5 264.509 279.282 264.134 278.922C263.77 278.557 263.566 278.05 263.566 277.538C263.566 277.016 263.773 276.519 264.134 276.144C264.869 275.419 266.183 275.419 266.908 276.144C267.279 276.515 267.486 277.016 267.486 277.538C267.486 278.05 267.279 278.557 266.918 278.922C266.547 279.282 266.046 279.5 265.528 279.5H265.528Z" fill="white"/>
<path d="M265.528 250.08C265.016 250.08 264.509 249.863 264.134 249.502C263.77 249.138 263.566 248.63 263.566 248.118C263.566 247.597 263.773 247.099 264.134 246.724C264.869 245.999 266.183 245.999 266.908 246.724C267.279 247.096 267.486 247.597 267.486 248.118C267.486 248.63 267.279 249.138 266.908 249.502C266.547 249.863 266.039 250.08 265.528 250.08Z" fill="white"/>
<path d="M265.528 220.66C265.01 220.66 264.509 220.443 264.144 220.082C263.773 219.718 263.566 219.21 263.566 218.699C263.566 218.177 263.773 217.68 264.134 217.305C264.869 216.58 266.183 216.58 266.908 217.305C267.279 217.676 267.486 218.177 267.486 218.699C267.486 219.21 267.279 219.718 266.918 220.082C266.547 220.443 266.046 220.66 265.528 220.66Z" fill="white"/>
<path d="M0.733398 385.423H20.348V405.037H0.733398V385.423Z" fill="white"/>
<path d="M30.1528 385.423H49.7674V405.037H30.1528V385.423Z" fill="white"/>
<path d="M59.5728 385.423H79.1873V405.037H59.5728V385.423Z" fill="white"/>
<path d="M88.9922 385.423H108.607V405.037H88.9922V385.423Z" fill="white"/>
</svg>
